<?xml version="1.0" encoding="utf-8"?>
<!-- Generator: Adobe Illustrator 26.0.2, SVG Export Plug-In . SVG Version: 6.00 Build 0)  -->
<svg version="1.1" id="Layer_1" xmlns="http://www.w3.org/2000/svg" xmlns:xlink="http://www.w3.org/1999/xlink" x="0px" y="0px"
	 viewBox="0 0 595.3 841.9" style="enable-background:new 0 0 595.3 841.9;" xml:space="preserve">
<style type="text/css">
	.st0{fill:#1A4392;}
	.st1{fill:#FFFFFF;}
	.st2{fill:#1F4897;}
	.st3{fill:#1C4493;stroke:#1C4493;stroke-width:4;stroke-miterlimit:10;}
	.st4{font-family:'Kanit-Medium';}
	.st5{font-size:49.2518px;}
</style>
<path class="st0" d="M571.4,384.3H402.7c-17.5,0-31.7-14.2-31.7-31.7v-37.5h182.6c9.8,0,17.8,8,17.8,17.8L571.4,384.3L571.4,384.3z"
	/>
<polygon class="st1" points="506.1,323.2 475.6,323.3 475.7,323.2 "/>
<path class="st1" d="M391.2,349.5h11.1l14.8,14.9l0.1-39.8c0-0.8,0.6-1.4,1.4-1.4h5.1c0.8,0,1.4,0.6,1.4,1.4v45.2
	c0,0.8-0.6,1.4-1.4,1.4h-11l-15.7-16C396.9,355.2,397,355.2,391.2,349.5z"/>
<path class="st1" d="M412.6,344.9h-11.1L386.8,330l-0.1,39.8c0,0.8-0.6,1.4-1.4,1.4h-5.1c-0.8,0-1.4-0.6-1.4-1.4v-45.2
	c0-0.8,0.6-1.4,1.4-1.4h11l15.7,16C407,339.2,406.9,339.2,412.6,344.9z"/>
<path class="st1" d="M467.7,330.1v0.2c0,0.4-0.1,0.7-0.4,1l-5.1,5.2c-0.9,0.9-2.4,0.3-2.4-1v-2.8c0-0.8-0.6-1.4-1.4-1.4h-28.7
	c-0.8,0-1.4-0.6-1.4-1.4v-3.6c0-0.4,0.1-0.7,0.4-1l1.5-1.6c0.3-0.3,0.6-0.4,1-0.4h29.7c0.4,0,0.7,0.1,1,0.4l5.4,5.5
	C467.5,329.3,467.7,329.7,467.7,330.1z"/>
<path class="st1" d="M459.8,344.7v5.4c0,0.4-0.1,0.7-0.4,1l-3.6,3.7c-0.3,0.3-0.6,0.4-1,0.4h-25.1c-0.8,0-1.4-0.6-1.4-1.4v-13.2
	c0-0.8,0.6-1.4,1.4-1.4h24.7c0.4,0,0.7,0.1,1,0.4l4,4.1C459.7,344,459.8,344.3,459.8,344.7z"/>
<path class="st1" d="M467.7,364.5v0.2c0,0.4-0.1,0.7-0.4,1l-5,5.1c-0.3,0.3-0.6,0.4-1,0.4h-30.5c-0.4,0-0.7-0.1-1-0.4l-1.2-1.2
	c-0.3-0.3-0.4-0.6-0.4-1v-4c0-0.8,0.6-1.4,1.4-1.4h28.7c0.8,0,1.4-0.6,1.4-1.4v-2.4c0-1.3,1.5-1.9,2.4-1l5.1,5.2
	C467.5,363.8,467.7,364.1,467.7,364.5z"/>
<path class="st1" d="M515,366.8v3c0,0.8-0.6,1.4-1.4,1.4h-13c-0.8,0-1.4-0.6-1.4-1.4v-2c0-0.4,0.1-0.7,0.4-1l1.4-1.5
	c0.5-0.6,0.5-1.5,0-2l-9.7-9.9l-0.4-0.4l-4.6-4.6c-0.5-0.6-0.5-1.5,0-2l3.6-3.6c0.5-0.6,1.4-0.6,2,0l4.9,5c0.9,0.9,2.4,0.3,2.4-1
	v-14.1c0-0.8-0.6-1.4-1.4-1.4h-13c-0.8,0-1.4,0.6-1.4,1.4v37.2c0,0.8-0.6,1.4-1.4,1.4h-5c-0.8,0-1.4-0.6-1.4-1.4v-45
	c0-0.8,0.6-1.4,1.4-1.4l28.5-0.1c0.4,0,0.7,0.1,1,0.4l0.2,0.2c0.3,0.3,0.4,0.6,0.4,1v22.5c0,0.4-0.1,0.7-0.4,1l-3.6,3.7
	c-0.5,0.6-0.5,1.5,0,2l4.6,4.6l7,7.1C514.9,366,515,366.4,515,366.8z"/>
<path class="st1" d="M553.1,323.3h-21c-5.1,0-9.2,4.2-9.2,9.3v29.2c0,5.2,4.1,9.3,9.2,9.3h21c5.1,0,9.2-4.2,9.2-9.3v-29.2
	C562.3,327.5,558.2,323.3,553.1,323.3z M530.3,357v-19.5c0-2.8,2.3-5.1,5.1-5.1h14.4c1.5,0,2.8,0.6,3.7,1.6l-23.2,23.5
	C530.4,357.4,530.3,357.2,530.3,357z M554.9,357c0,2.8-2.3,5.1-5.1,5.1h-14.4c-1.4,0-2.7-0.6-3.6-1.5l23-23.4c0,0.1,0,0.2,0,0.2
	L554.9,357L554.9,357z"/>
<path class="st2" d="M554.9,337.5V357c0,2.8-2.3,5.1-5.1,5.1h-14.4c-1.4,0-2.7-0.6-3.6-1.5l23-23.4
	C554.9,337.4,554.9,337.4,554.9,337.5z"/>
<path class="st2" d="M553.5,334l-23.2,23.5c0-0.2,0-0.3,0-0.5v-19.5c0-2.8,2.3-5.1,5.1-5.1h14.4C551.3,332.4,552.6,333,553.5,334z"
	/>
<path class="st3" d="M90,369.9c-3.9,0-7.6-0.3-11-0.9c-2.9-0.5-5.5-1.2-7.8-2c-0.6-0.2-1.1-0.9-1.1-1.6v-7.7c0-1.2,1.2-2,2.3-1.6
	c2.1,0.8,4.4,1.4,6.8,1.9c3.2,0.7,6.4,1,9.5,1c4.4,0,7.7-0.4,9.8-1.2c2.1-0.8,3.1-2.7,3.1-5.6c0-1.8-0.4-3.3-1.3-4.4s-2.4-2-4.6-2.9
	s-5.3-1.8-9.3-2.9c-6.4-1.8-10.9-4-13.5-6.7s-3.9-6.3-3.9-11c0-5.6,2.1-10,6.2-13s10.1-4.6,18-4.6c3.7,0,7.1,0.2,10.3,0.8
	c2.6,0.4,4.7,0.9,6.5,1.4c0.7,0.2,1.2,0.9,1.2,1.6v7.7c0,1.1-1.1,2-2.2,1.6c-4.5-1.5-9.2-2.2-14.1-2.2c-4,0-7.1,0.4-9.4,1.3
	s-3.4,2.6-3.4,5.4c0,1.6,0.4,2.9,1.2,3.8c0.8,1,2.2,1.8,4.2,2.6c2,0.8,4.8,1.6,8.4,2.6c5,1.3,8.9,2.9,11.6,4.8s4.6,3.9,5.7,6.3
	s1.6,5,1.6,7.9c0,5.3-2,9.6-6.1,12.8C104.7,368.3,98.5,369.9,90,369.9z"/>
<path class="st3" d="M125.6,367.3v-32.2c0-0.9-0.8-1.7-1.7-1.7h-3.2c-1,0-1.8-0.9-1.7-1.9l0.7-6.1c0.1-0.9,0.8-1.5,1.7-1.5h15.3
	c0.9,0,1.7,0.8,1.7,1.7v41.7c0,0.9-0.8,1.7-1.7,1.7h-9.4C126.4,369,125.6,368.2,125.6,367.3z M124.6,313.9v-6.7
	c0-0.9,0.8-1.7,1.7-1.7h10.6c0.9,0,1.7,0.8,1.7,1.7v6.7c0,0.9-0.8,1.7-1.7,1.7h-10.6C125.3,315.6,124.6,314.9,124.6,313.9z"/>
<path class="st3" d="M149.4,367.3v-41.7c0-0.9,0.8-1.7,1.7-1.7h8.7c0.9,0,1.6,0.6,1.7,1.5l0,0c0.1,1.2,1.5,1.9,2.5,1.3
	c1.5-0.9,3.1-1.7,4.9-2.4c2.6-1,5.3-1.4,8.3-1.4c3.2,0,5.6,0.5,7.4,1.4c1.2,0.7,2.3,1.6,3.1,2.7c0.6,0.7,1.5,0.9,2.3,0.4
	c1.8-1.2,3.7-2.2,5.8-3c2.7-1,5.9-1.5,9.6-1.5c5.2,0,9,1.4,11.5,4c2.5,2.7,3.7,6.8,3.7,12.3v28c0,0.9-0.8,1.7-1.7,1.7h-9.3
	c-0.9,0-1.7-0.8-1.7-1.7v-26.6c0-3-0.6-5.1-1.9-6.4c-1.3-1.3-3.3-2-6.1-2c-3.4,0-6.4,1.1-8.8,3.4c-0.4,0.4-0.7,1-0.5,1.6
	c0.2,0.9,0.3,1.9,0.3,3.1v26.9c0,0.9-0.8,1.7-1.7,1.7h-8.6c-0.9,0-1.7-0.8-1.7-1.7v-26.6c0-2.8-0.5-4.9-1.4-6.3s-2.8-2.1-5.5-2.1
	c-1.9,0-3.7,0.5-5.4,1.5c-1.4,0.9-2.8,1.8-4,2.9c-0.4,0.3-0.6,0.8-0.6,1.3v29.3c0,0.9-0.8,1.7-1.7,1.7H151
	C150.2,369,149.4,368.2,149.4,367.3z"/>
<path class="st3" d="M231,387.8v-62.3c0-0.9,0.8-1.7,1.7-1.7h8c0.8,0,1.5,0.6,1.7,1.4l0,0c0.2,1.2,1.6,1.8,2.6,1.2
	c1.4-0.9,2.8-1.6,4.3-2.2c2.4-0.9,5.1-1.3,8.3-1.3c6.6,0,11.7,1.8,15.3,5.4c3.6,3.6,5.4,9.4,5.4,17.5s-1.9,14.2-5.8,18.1
	s-9,6-15.6,6c-4,0-7.5-0.7-10.5-2.1c-1.1-0.5-2.4,0.3-2.4,1.5v18.5c0,0.9-0.8,1.7-1.7,1.7h-9.4C231.8,389.5,231,388.8,231,387.8z
	 M253.6,360.5c3.8,0,6.7-1.2,8.7-3.5c2-2.4,3-6,3-11c0-4.8-0.9-8.3-2.7-10.4c-1.8-2.1-4.6-3.2-8.6-3.2c-3.7,0-6.9,1.2-9.5,3.6
	c-0.4,0.3-0.5,0.8-0.5,1.2v19c0,0.5,0.2,1.1,0.7,1.4c1.1,0.8,2.3,1.4,3.5,2C249.6,360.2,251.4,360.5,253.6,360.5z"/>
<path class="st3" d="M299.7,369.9c-4.4,0-7.6-1-9.6-3s-3-5.3-3-9.7v-50.6c0-0.9,0.8-1.7,1.7-1.7h9.5c0.9,0,1.7,0.8,1.7,1.7v49.6
	c0,1.6,0.3,2.7,1,3.3s1.5,0.9,2.8,0.9c0.9,0,1.7-0.1,2.5-0.2c1-0.2,1.9,0.6,1.9,1.7v5.5c0,0.8-0.5,1.4-1.2,1.6
	C304.9,369.6,302.4,369.9,299.7,369.9z"/>
<path class="st3" d="M325.6,381.9c-2,0-3.7-0.1-5.2-0.3c-1-0.1-2.1-0.4-3.1-0.7c-0.8-0.3-1.4-1-1.4-1.9v-5.1c0-1.2,1.1-2.2,2.3-1.9
	c0.2,0,0.5,0.1,0.7,0.1c0.9,0.1,1.9,0.2,2.8,0.2c2.6,0,4.6-0.6,6-1.8c1.3-1.1,2.6-2.8,3.9-5.2c0.3-0.5,0.3-1.2,0-1.7l-18.5-40.7
	c-0.6-1.3,0.4-2.8,1.8-2.8h9.1c0.8,0,1.5,0.5,1.8,1.2l10.9,25.3c0.7,1.6,2.9,1.6,3.6,0l10.8-25.3c0.3-0.7,1-1.2,1.8-1.2h9.1
	c1.4,0,2.3,1.4,1.8,2.7L347.2,362c-1.6,3.9-3.4,7.4-5.4,10.4c-1.9,3-4.2,5.3-6.8,7C332.5,381,329.3,381.9,325.6,381.9z"/>
<text transform="matrix(1 0 0 1 428.2607 429.9449)" class="st4 st5">Media</text>
</svg>
